:FULLY-SPECIFIED
:FORCE-ALL-JOINTS-BE-3DOF
:DEGREES
2650
root -1.61876 14.8414 -28.6829 1112.24 -65.7335 -33.8824
lfemur -31.8001 22.4864 -6.41491
ltibia 85.1119 0 0
lfoot -5.44272 10.3799 0
ltoes -23.5651 0 0
rfemur -43.0985 -26.5238 24.151
rtibia 70.4281 0 0
rfoot -17.2813 -16.5737 0
rtoes -5.32187 0 0
lowerback 16.8739 0.900371 -3.09883
upperback -0.984758 0.823849 2.73474
thorax -10.5393 0.644486 4.57879
lowerneck -3.20765 2.30842 -3.25343
upperneck 3.47715 3.02825 5.37619
head 1.6449 1.56796 2.37762
lclavicle 1.55164e-14 -1.36131e-15 0
lhumerus 58.7076 -51.6299 43.6569
lradius 120.546 0 0
lwrist 33.605 0 0
lhand -20.4962 394.981 0
lfingers 7.12502 0 0
lthumb 5.85993 -655.282 0
rclavicle 1.55164e-14 -1.36131e-15 0
rhumerus -11.8847 28.0544 -73.8669
rradius 89.4347 0 0
rwrist 1.63796 0 0
rhand -23.1435 -384.105 0
rfingers 7.12502 0 0
rthumb 3.30063 306.048 0
2651
root -1.72312 14.8335 -28.6598 1114.13 -65.2316 -35.8015
lfemur -31.9998 22.531 -6.46947
ltibia 84.5691 0 0
lfoot -5.28314 10.4082 0
ltoes -23.5081 0 0
rfemur -43.0169 -26.3331 24.1277
rtibia 70.4795 0 0
rfoot -17.4362 -16.5577 0
rtoes -5.4085 0 0
lowerback 16.8817 0.981075 -3.04064
upperback -0.987747 0.938212 2.70096
thorax -10.547 0.694419 4.4793
lowerneck -3.15862 2.34101 -3.22507
upperneck 3.50979 3.06564 5.36807
head 1.66908 1.58491 2.36876
lclavicle 1.47816e-14 -1.22797e-15 0
lhumerus 57.4014 -50.7702 44.5108
lradius 120.206 0 0
lwrist 33.0078 0 0
lhand -20.6848 394.907 0
lfingers 7.12502 0 0
lthumb 5.6774 -655.369 0
rclavicle 1.47816e-14 -1.22797e-15 0
rhumerus -12.2118 28.4628 -74.1503
rradius 89.8678 0 0
rwrist 0.326534 0 0
rhand -22.8667 -384.022 0
rfingers 7.12502 0 0
rthumb 3.56763 306.143 0
2652
root -1.82749 14.8256 -28.6368 1116.24 -64.7338 -37.9428
lfemur -32.2182 22.5974 -6.5166
ltibia 83.9728 0 0
lfoot -5.09328 10.4225 0
ltoes -23.4343 0 0
rfemur -42.9114 -26.1313 24.0952
rtibia 70.5409 0 0
rfoot -17.6114 -16.5416 0
rtoes -5.50193 0 0
lowerback 16.888 1.06858 -2.97311
upperback -0.991666 1.06332 2.66498
thorax -10.5547 0.748844 4.36943
lowerneck -3.10951 2.38798 -3.186
upperneck 3.54932 3.12213 5.35063
head 1.69535 1.61139 2.35584
lclavicle 1.39793e-14 -1.09064e-15 0
lhumerus 56.0106 -49.8191 45.4176
lradius 119.843 0 0
lwrist 32.3251 0 0
lhand -20.9085 394.823 0
lfingers 7.12502 0 0
lthumb 5.46107 -655.468 0
rclavicle 1.39793e-14 -1.09064e-15 0
rhumerus -12.6114 28.9141 -74.4862
rradius 90.3429 0 0
rwrist -1.12438 0 0
rhand -22.5637 -383.927 0
rfingers 7.12502 0 0
rthumb 3.85984 306.252 0
2653
root -1.93186 14.8177 -28.6138 1118.57 -64.2437 -40.3212
lfemur -32.4564 22.6879 -6.55503
ltibia 83.3198 0 0
lfoot -4.87045 10.4211 0
ltoes -23.3419 0 0
rfemur -42.7797 -25.9185 24.0524
rtibia 70.6131 0 0
rfoot -17.8083 -16.5256 0
rtoes -5.60243 0 0
lowerback 16.8927 1.16318 -2.89547
upperback -0.996611 1.19975 2.62675
thorax -10.5621 0.80799 4.24855
lowerneck -3.06062 2.45089 -3.13507
upperneck 3.59638 3.19984 5.32276
head 1.7238 1.64848 2.33843
lclavicle 1.31058e-14 -9.4968e-16 0
lhumerus 54.5332 -48.7709 46.3785
lradius 119.456 0 0
lwrist 31.5501 0 0
lhand -21.1703 394.725 0
lfingers 7.12502 0 0
lthumb 5.20794 -655.579 0
rclavicle 1.31058e-14 -9.4968e-16 0
rhumerus -13.0903 29.4108 -74.8794
rradius 90.8621 0 0
rwrist -2.7235 0 0
rhand -22.2332 -383.818 0
rfingers 7.12502 0 0
rthumb 4.17864 306.376 0
2654
root -2.03622 14.8098 -28.5907 1121.15 -63.7652 -42.9519
lfemur -32.7155 22.805 -6.58348
ltibia 82.6072 0 0
lfoot -4.61194 10.4018 0
ltoes -23.2292 0 0
rfemur -42.6193 -25.6944 23.9983
rtibia 70.6971 0 0
rfoot -18.0284 -16.5097 0
rtoes -5.71029 0 0
lowerback 16.8955 1.26522 -2.80695
upperback -1.00268 1.34809 2.58623
thorax -10.5694 0.872089 4.11601
lowerneck -3.01225 2.53131 -3.07114
upperneck 3.6516 3.30089 5.28336
head 1.75454 1.69723 2.31607
lclavicle 1.21578e-14 -8.05471e-16 0
lhumerus 52.9672 -47.62 47.3944
lradius 119.046 0 0
lwrist 30.6762 0 0
lhand -21.4734 394.615 0
lfingers 7.12502 0 0
lthumb 4.91502 -655.703 0
rclavicle 1.21578e-14 -8.05471e-16 0
rhumerus -13.6554 29.9556 -75.3344
rradius 91.4279 0 0
rwrist -4.47952 0 0
rhand -21.8737 -383.695 0
rfingers 7.12502 0 0
rthumb 4.52539 306.515 0
2655
root -2.14059 14.8019 -28.5677 1123.99 -63.3021 -45.8498
lfemur -32.9963 22.9509 -6.6007
ltibia 81.8317 0 0
lfoot -4.31505 10.3629 0
ltoes -23.0945 0 0
rfemur -42.4279 -25.4589 23.9319
rtibia 70.7937 0 0
rfoot -18.2733 -16.4941 0
rtoes -5.82578 0 0
lowerback 16.8962 1.37499 -2.70678
upperback -1.00996 1.50893 2.54336
thorax -10.5764 0.941369 3.97118
lowerneck -2.96472 2.6308 -2.99308
upperneck 3.71564 3.42739 5.23134
head 1.78766 1.75872 2.28834
lclavicle 1.11315e-14 -6.58386e-16 0
lhumerus 51.3108 -46.3605 48.4663
lradius 118.611 0 0
lwrist 29.6965 0 0
lhand -21.8207 394.49 0
lfingers 7.12502 0 0
lthumb 4.57933 -655.841 0
rclavicle 1.11315e-14 -6.58386e-16 0
rhumerus -14.3135 30.5512 -75.856
rradius 92.0426 0 0
rwrist -6.40115 0 0
rhand -21.4837 -383.557 0
rfingers 7.12502 0 0
rthumb 4.90149 306.671 0
2656
root -2.24496 14.794 -28.5447 1127.1 -62.858 -49.0297
lfemur -33.3001 23.1282 -6.60539
ltibia 80.9905 0 0
lfoot -3.97708 10.3025 0
ltoes -22.9361 0 0
rfemur -42.2029 -25.2119 23.8523
rtibia 70.9038 0 0
rfoot -18.5443 -16.4788 0
rtoes -5.94917 0 0
lowerback 16.8946 1.49282 -2.59416
upperback -1.01856 1.68284 2.49809
thorax -10.583 1.01606 3.81342
lowerneck -2.91833 2.75092 -2.89973
upperneck 3.78911 3.58145 5.16558
head 1.82326 1.83402 2.25478
lclavicle 1.00234e-14 -5.08796e-16 0
lhumerus 49.5618 -44.9868 49.5952
lradius 118.151 0 0
lwrist 28.6046 0 0
lhand -22.2155 394.35 0
lfingers 7.12502 0 0
lthumb 4.19788 -655.995 0
rclavicle 1.00234e-14 -5.08796e-16 0
rhumerus -15.0715 31.2002 -76.4487
rradius 92.7086 0 0
rwrist -8.49709 0 0
rhand -21.0619 -383.402 0
rfingers 7.12502 0 0
rthumb 5.30831 306.845 0
2657
root -2.34933 14.7861 -28.5217 1130.5 -62.4368 -52.5068
lfemur -33.6277 23.3392 -6.59629
ltibia 80.0802 0 0
lfoot -3.59533 10.2185 0
ltoes -22.7523 0 0
rfemur -41.942 -24.9534 23.7585
rtibia 71.0284 0 0
rfoot -18.8431 -16.464 0
rtoes -6.08074 0 0
lowerback 16.8903 1.61901 -2.46834
upperback -1.02856 1.87042 2.45036
thorax -10.5892 1.0964 3.64211
lowerneck -2.87339 2.89325 -2.78997
upperneck 3.87267 3.76521 5.085
head 1.86145 1.92418 2.21495
lclavicle 8.83001e-15 -3.57076e-16 0
lhumerus 47.7185 -43.4933 50.7821
lradius 117.665 0 0
lwrist 27.3936 0 0
lhand -22.6609 394.194 0
lfingers 7.12502 0 0
lthumb 3.76767 -656.164 0
rclavicle 8.83001e-15 -3.57076e-16 0
rhumerus -15.9361 31.9052 -77.1173
rradius 93.4283 0 0
rwrist -10.776 0 0
rhand -20.6068 -383.23 0
rfingers 7.12502 0 0
rthumb 5.74722 307.038 0
2658
root -2.45369 14.7782 -28.4986 1134.21 -62.0421 -56.2959
lfemur -33.9802 23.5863 -6.57214
ltibia 79.0979 0 0
lfoot -3.16709 10.1092 0
ltoes -22.5413 0 0
rfemur -41.6428 -24.6831 23.6494
rtibia 71.1682 0 0
rfoot -19.1711 -16.4497 0
rtoes -6.22078 0 0
lowerback 16.8833 1.75389 -2.32854
upperback -1.04007 2.07224 2.40013
thorax -10.5949 1.18261 3.4566
lowerneck -2.8302 3.05934 -2.66265
upperneck 3.96695 3.98077 4.98849
head 1.90233 2.03029 2.16841
lclavicle 7.54768e-15 -2.03598e-16 0
lhumerus 45.7787 -41.8741 52.028
lradius 117.153 0 0
lwrist 26.0568 0 0
lhand -23.1599 394.021 0
lfingers 7.12502 0 0
lthumb 3.28572 -656.35 0
rclavicle 7.54768e-15 -2.03598e-16 0
rhumerus -16.9142 32.6688 -77.8663
rradius 94.2039 0 0
rwrist -13.2467 0 0
rhand -20.117 -383.04 0
rfingers 7.12502 0 0
rthumb 6.21961 307.25 0
2659
root -2.55806 14.7703 -28.4756 1138.23 -61.6779 -60.4121
lfemur -34.3587 23.8719 -6.53165
ltibia 78.0405 0 0
lfoot -2.68967 9.97263 0
ltoes -22.3015 0 0
rfemur -41.3028 -24.4009 23.524
rtibia 71.3243 0 0
rfoot -19.5298 -16.436 0
rtoes -6.36955 0 0
lowerback 16.8732 1.89776 -2.17398
upperback -1.05317 2.28888 2.34735
thorax -10.6001 1.27492 3.25626
lowerneck -2.78908 3.25076 -2.51663
upperneck 4.07259 4.23025 4.87495
head 1.94598 2.1534 2.11471
lclavicle 6.17288e-15 -4.87348e-17 0
lhumerus 43.7406 -40.1237 53.3339
lradius 116.614 0 0
lwrist 24.5877 0 0
lhand -23.7156 393.829 0
lfingers 7.12502 0 0
lthumb 2.74905 -656.554 0
rclavicle 6.17288e-15 -4.87348e-17 0
rhumerus -18.0127 33.4938 -78.7004
rradius 95.0379 0 0
rwrist -15.9178 0 0
rhand -19.5911 -382.831 0
rfingers 7.12502 0 0
rthumb 6.72684 307.484 0
2660
root -2.66243 14.7624 -28.4526 1142.58 -61.3477 -64.8703
lfemur -34.764 24.1984 -6.47355
ltibia 76.9049 0 0
lfoot -2.16035 9.80684 0
ltoes -22.0311 0 0
rfemur -40.9196 -24.1068 23.3814
rtibia 71.4975 0 0
rfoot -19.9206 -16.4231 0
rtoes -6.52733 0 0
lowerback 16.8598 2.05095 -2.00389
upperback -1.06797 2.52094 2.29196
thorax -10.6047 1.37356 3.04046
lowerneck -2.75033 3.46907 -2.35078
upperneck 4.19023 4.51576 4.74329
head 1.99253 2.29458 2.05342
lclavicle 4.70204e-15 1.0714e-16 0
lhumerus 41.6022 -38.2362 54.7009
lradius 116.048 0 0
lwrist 22.9794 0 0
lhand -24.3312 393.619 0
lfingers 7.12502 0 0
lthumb 2.15465 -656.776 0
rclavicle 4.70204e-15 1.0714e-16 0
rhumerus -19.2383 34.3826 -79.6243
rradius 95.9325 0 0
rwrist -18.7981 0 0
rhand -19.0276 -382.601 0
rfingers 7.12502 0 0
rthumb 7.27031 307.74 0
2661
root -2.7668 14.7545 -28.4296 1147.27 -61.0555 -69.6855
lfemur -35.1974 24.5682 -6.39658
ltibia 75.688 0 0
lfoot -1.57645 9.60996 0
ltoes -21.7284 0 0
rfemur -40.4909 -23.8006 23.2206
rtibia 71.6887 0 0
rfoot -20.3452 -16.4111 0
rtoes -6.69439 0 0
lowerback 16.843 2.21376 -1.81749
upperback -1.08456 2.76899 2.23391
thorax -10.6086 1.47877 2.80855
lowerneck -2.71427 3.71584 -2.16395
upperneck 4.3205 4.83942 4.5924
head 2.04206 2.4549 1.98408
lclavicle 3.13159e-15 2.63652e-16 0
lhumerus 39.3615 -36.2061 56.1298
lradius 115.453 0 0
lwrist 21.2254 0 0
lhand -25.0097 393.389 0
lfingers 7.12502 0 0
lthumb 1.49954 -657.018 0
rclavicle 3.13159e-15 2.63652e-16 0
rhumerus -20.5979 35.338 -80.6426
rradius 96.8902 0 0
rwrist -21.8961 0 0
rhand -18.425 -382.35 0
rfingers 7.12502 0 0
rthumb 7.85138 308.019 0
